@startuml
  'Clases
  abstract Class Persona <<abstract>>{
    +String nombre
    -int edad
    #char genero

    Persona()
    void saltar()
    static void correr()
    virtual void hablar()

    'virtual puro en c++'
    virtual void hablar() =0;
  }
  Class Profesor

  interface Interfaz
  Class Asientos
  Class Cumbias

  'Relaciones
  Persona <|--Profesor : Herencia
  Interfaz <|..Profesor : < Implementacion
  Profesor <- Transporte :  Asociación >

  Transporte o-- Asientos : Agregacion

  Transporte *-- Cumbias : Composicion
@enduml
